<?xml version="1.0" encoding="iso-8859-1"?>
<!-- Generator: Adobe Illustrator 19.0.0, SVG Export Plug-In . SVG Version: 6.00 Build 0)  -->
<svg xmlns="http://www.w3.org/2000/svg" xmlns:xlink="http://www.w3.org/1999/xlink" version="1.1" id="Layer_1" x="0px" y="0px" viewBox="0 0 439.48 439.48" style="enable-background:new 0 0 439.48 439.48;" xml:space="preserve" width="512" height="512">
<g>
	<path style="fill:#9B6121;" d="M397.52,298.702v94.74c0,4.15-3.36,7.5-7.5,7.5c-4.14,0-7.5-3.35-7.5-7.5v-94.74   c0-4.14,3.36-7.5,7.5-7.5C394.16,291.202,397.52,294.562,397.52,298.702z"/>
	<path style="fill:#562F15;" d="M397.52,298.702v42.48c-2.44,0.39-4.94,0.59-7.5,0.59s-5.06-0.2-7.5-0.59v-42.48   c0-4.14,3.36-7.5,7.5-7.5C394.16,291.202,397.52,294.562,397.52,298.702z"/>
	<path style="fill:#9B6121;" d="M56.956,298.702v94.74c0,4.15-3.36,7.5-7.5,7.5c-4.14,0-7.5-3.35-7.5-7.5v-94.74   c0-4.14,3.36-7.5,7.5-7.5C53.596,291.202,56.956,294.562,56.956,298.702z"/>
	<path style="fill:#562F15;" d="M56.956,298.702v42.48c-2.44,0.39-4.94,0.59-7.5,0.59s-5.06-0.2-7.5-0.59v-42.48   c0-4.14,3.36-7.5,7.5-7.5C53.596,291.202,56.956,294.562,56.956,298.702z"/>
	<rect x="212.24" y="291.532" style="fill:#808080;" width="15" height="36.11"/>
	<path style="fill:#3B9DFF;" d="M297.74,286.72c-2.761,0-5-2.239-5-5v-25c0-18.748-15.252-34-34-34s-34,15.252-34,34   c0,2.761-2.239,5-5,5s-5-2.239-5-5c0-18.748-15.252-34-34-34s-34,15.252-34,34v25c0,2.761-2.239,5-5,5s-5-2.239-5-5v-25   c0-24.262,19.738-44,44-44c16.92,0,31.641,9.602,39,23.641c7.359-14.039,22.08-23.641,39-23.641c24.262,0,44,19.738,44,44v25   C302.74,284.481,300.501,286.72,297.74,286.72z"/>
	<path style="fill:#07A521;" d="M390.023,322.792c-26.26,0-47.2-21.35-47.2-47.13c0-1.23,0.04-2.47,0.14-3.72l5.06-65.29   c1.7-21.93,20-38.86,42-38.86c21.99,0,40.29,16.93,41.99,38.86l5.06,65.29C439.203,299.362,417.523,322.792,390.023,322.792z"/>
	<path style="fill:#3B9DFF;" d="M370.783,117.512c2.05,2.06,3.32,4.9,3.32,8.03c0,6.28-5.08,11.36-11.36,11.36h-39.16   c-3.14,0-5.98-1.27-8.03-3.33c-2.06-2.05-3.33-4.89-3.33-8.03c0-6.27,5.09-11.36,11.36-11.36h-42.85c-3.13,0-5.97-1.27-8.03-3.33   c-2.06-2.05-3.33-4.89-3.33-8.03c0-6.27,5.09-11.36,11.36-11.36h65.57c3.14,0,5.98,1.27,8.03,3.33c2.06,2.06,3.33,4.9,3.33,8.03   c0,6.28-5.09,11.36-11.36,11.36h16.44C365.883,114.182,368.723,115.452,370.783,117.512z"/>
	<path style="fill:#CCCCCC;" d="M150.828,322.452h137.821c-12.482,25.463-38.642,43-68.905,43   C189.47,365.452,163.309,347.915,150.828,322.452z"/>
	<path style="fill:#B3B3B3;" d="M252.649,322.452c-9.924,20.246-28.501,35.47-50.907,40.863c5.775,1.39,11.8,2.137,18.003,2.137   c30.263,0,56.423-17.537,68.905-43H252.649z"/>
	<path style="fill:#CCCCCC;" d="M173.268,275.452h92.951c-8.423,17.173-26.062,29-46.476,29S181.678,292.625,173.268,275.452z"/>
	<path style="fill:#B3B3B3;" d="M242.219,275.452c-6.718,13.697-19.301,23.985-34.476,27.592c3.852,0.916,7.868,1.408,12.001,1.408   c20.414,0,38.053-11.827,46.476-29H242.219z"/>
	<path style="fill:#07A521;" d="M49.463,322.792c-27.51,0-49.19-23.43-47.06-50.85l5.07-65.29c1.7-21.93,19.99-38.86,41.99-38.86   s40.29,16.93,41.99,38.86l5.06,65.29c0.1,1.25,0.14,2.49,0.14,3.72C96.653,301.442,75.713,322.792,49.463,322.792z"/>
	<path style="fill:#0FBC30;" d="M96.513,271.942l-5.06-65.29c-1.7-21.93-19.99-38.86-41.99-38.86   c-19.216,0-35.6,12.918-40.572,30.801c3.61-1.006,7.406-1.552,11.323-1.552c22,0,40.29,16.93,41.99,38.86l5.06,65.29   c0.1,1.25,0.14,2.49,0.14,3.72c0,5.346-0.913,10.497-2.574,15.311c18.598-6.403,31.823-24.077,31.823-44.56   C96.653,274.432,96.613,273.192,96.513,271.942z"/>
	<path style="fill:#0FBC30;" d="M342.963,271.942l5.06-65.29c1.7-21.93,19.99-38.86,41.99-38.86c19.216,0,35.6,12.918,40.572,30.801   c-3.61-1.006-7.406-1.552-11.323-1.552c-22,0-40.29,16.93-41.99,38.86l-5.06,65.29c-0.1,1.25-0.14,2.49-0.14,3.72   c0,5.346,0.913,10.497,2.574,15.311c-18.598-6.403-31.823-24.077-31.823-44.56C342.823,274.432,342.863,273.192,342.963,271.942z"/>
	<path style="fill:#EAB932;" d="M131.997,23.563c27.75,0,50.24,22.5,50.24,50.25s-22.49,50.25-50.24,50.25s-50.25-22.5-50.25-50.25   S104.247,23.563,131.997,23.563z"/>
	<path style="fill:#FFD039;" d="M182.237,73.813c0,27.75-22.49,50.25-50.24,50.25c-6.12,0-11.98-1.09-17.4-3.1   c-2.01-5.42-3.1-11.28-3.1-17.4c0-27.75,22.49-50.25,50.25-50.25c6.11,0,11.97,1.09,17.39,3.09   C181.148,61.833,182.237,67.693,182.237,73.813z"/>
	<polygon style="fill:#CCCCCC;" points="310.303,359.452 306.293,392.462 133.183,392.462 129.173,359.452 219.743,359.452  "/>
	<polygon style="fill:#B3B3B3;" points="310.303,359.452 306.293,392.462 254.183,392.462 262.743,359.452  "/>
	<g>
		<path style="fill:#0FBC30;" d="M439.48,415.917H0c0-4.43,1.13-8.59,3.12-12.22c1.17-2.14,2.64-4.09,4.35-5.8    c4.61-4.62,10.99-7.47,18.03-7.47h388.48c9.65,0,18.05,5.36,22.38,13.27C438.35,407.327,439.48,411.487,439.48,415.917z"/>
		<path style="fill:#07A521;" d="M439.48,415.917H0c0-4.43,1.13-8.59,3.12-12.22h433.24    C438.35,407.327,439.48,411.487,439.48,415.917z"/>
	</g>
</g>















</svg>
