<?xml version='1.0' encoding='utf-8'?>
<svg xmlns="http://www.w3.org/2000/svg" version="1.1" id="Layer_1" x="0px" y="0px" viewBox="0 0 587.7 405" style="enable-background:new 0 0 587.7 405;"> <style type="text/css"> .st0{fill:url(#SVGID_1_);} .st1{fill:url(#SVGID_2_);} .st2{fill:#EDCAE0;} .st3{fill:#E2C7E0;} .st4{fill:#D1C0DE;} .st5{fill:#D0EDF9;} .st6{fill:#6C8CC7;} .st7{opacity:0.43;fill:#FFF799;} .st8{opacity:0.61;fill:#FBC8B4;} .st9{fill:#9F9FC7;} .st10{opacity:0.54;fill:#FFFBCC;} .st11{fill:#717F84;} .st12{fill:#707956;} .st13{fill:#5F734B;} .st14{fill:#A1967D;} .st15{fill:url(#SVGID_3_);} .st16{fill:#556845;} .st17{fill:#6A744E;} .st18{fill:#81875D;} .st19{fill:#848D65;} .st20{fill:#79825D;} .st21{fill:#747A54;} .st22{fill:#757D59;} .st23{fill:url(#SVGID_4_);} .st24{fill:url(#SVGID_5_);} .st25{fill:url(#SVGID_6_);} .st26{fill:#AC9F86;} .st27{fill:#869067;} .st28{fill:#808962;} .st29{fill:#BCA893;} </style> <linearGradient id="SVGID_1_" gradientUnits="userSpaceOnUse" x1="270.2205" y1="218.8122" x2="317.0432" y2="-46.7327"> <stop offset="0" style="stop-color:#FDC689"/> <stop offset="1" style="stop-color:#5B57A6"/> </linearGradient> <path class="st0" d="M586.6,0.8H0.7v170.5h585.9C586.6,171.3,586.6,0.8,586.6,0.8z"/> <linearGradient id="SVGID_2_" gradientUnits="userSpaceOnUse" x1="181.0583" y1="93.4758" x2="181.0583" y2="163.125"> <stop offset="0.5103" style="stop-color:#FFE0BF"/> <stop offset="0.7205" style="stop-color:#FFE0BF"/> <stop offset="0.7402" style="stop-color:#F2D8B6"/> <stop offset="0.7954" style="stop-color:#DDC7A2"/> <stop offset="0.8543" style="stop-color:#CFBC95"/> <stop offset="0.9188" style="stop-color:#C6B68D"/> <stop offset="1" style="stop-color:#C3B48B"/> <stop offset="1" style="stop-color:#C9B890"/> </linearGradient> <path class="st1" d="M143.4,128.3c0-19.2,16.9-34.8,37.6-34.8c20.8,0,37.6,15.6,37.6,34.8c0,19.2-16.8,34.9-37.6,34.9 C160.3,163.1,143.4,147.5,143.4,128.3"/> <path class="st2" d="M587.7,0v217.2"/> <path class="st3" d="M587.6,1.3v208.3"/> <path class="st3" d="M587.6,209.6H1.7"/> <path class="st3" d="M1.7,1.3h585.9"/> <path class="st4" d="M587.5,1.9v199.4"/> <path class="st4" d="M587.5,201.3H1.6"/> <path class="st4" d="M1.6,1.9h585.9"/> <path class="st5" d="M2,211.2h583.5"/> <path class="st6" d="M1.7,213.6h583.9"/> <path class="st7" d="M337.4,125.7c28.4-4.4,49.4-3.1,63.5-1.1c10.2,1.5,23.4,4.4,45.5,6c10.2,0.8,15.6,0.8,24,1.1 c25,0.9,67.9,4.2,68,7.4c0.1,4.1-68.7,10.5-133,12c-63.5,1.5-129.2-1.6-144.5,2.5c-1,0.3-9.4,2.6-18.5,0.7c-1.1-0.2-5.6-1.1-5.6-2.2 c0.1-2.8,30.2-3,30.4-5.9c0.1-1.2-4.5-2.3-7.3-2.8c-10.5-1.8-19.9,1.3-21.5,1.8c-15.2,4.8-28,0.3-77.6,5.2c0,0-57.7,5.9-78.3,0.4 c-9-2.4,41.6-10.2,6.3-10.8c-0.3,0-0.6,0-0.6-0.1c-0.3-0.8,20.2-5.8,39.5-10.3C197.6,128.3,267.5,127,337.4,125.7z"/> <path class="st8" d="M128.4,146.9c63.5-6.5,77.6-11.7,77.5-15.3c0-2.9-8.9-6.8-16-8c-10.1-1.7-15.7,2.1-22.5-2c-2.9-1.8-6.8-5.4-6-8 c1.2-4,12.2-3.1,27.5-4.5c18.6-1.7,21.5-4.7,33.3-6c31.1-3.3,55.9,15.1,57.2,12.5c1-2-14.8-10-13.5-13.5c0.6-1.7,5.3-2,34.5,3 c26.6,4.6,34.4,6.8,43,12c5.3,3.2,16.7,10.1,15.5,15c-2.6,10.3-58.8,3.8-59,6c-0.2,2.5,67.6,5.6,68,13.5c0.4,8.2-71.6,26.2-148,18 C181,165.4,149.7,155.3,128.4,146.9z"/> <path class="st9" d="M317.4,168.5c0,3.6-89.1,7.3-116.5,7.3c-27.4,0-96.5,0.9-96.5-2.3"/> <path class="st10" d="M55.1,159.9c-3.3,0.2-26.3,0.9-41.8-12.9c-10.4-9.3-17.5-25.3-10.3-31.4c6.1-5.2,17.8,0.6,62.1,6.6 c17.9,2.4,26.9,3.6,39.7,3.9c21.2,0.4,28.2-2.9,48.9-2.9c17.3,0,33.8,1.1,49,2.9c14.9,2,124.8,4,136.3,7.3"/> <path class="st11" d="M209.6,172.8c12.2-2.8,24.5-8.5,32.6-12.7c8.2-4.2,8.2-11.3,16.3-8.5c8.2,2.8,12.2,7.1,19,8.5 c6.8,1.4,17.7-11.3,25.8-8.5c8.2,2.8,24.5,4.2,31.3,2.8c6.8-1.4,23.1-7.1,32.6-12.7c9.5-5.6,21.6-10.9,28.6-16.9 c8.2-7.1,28.6-4.2,39.4-2.8c10.9,1.4,53,32.5,53,32.5L476.2,242L254.5,235L209.6,172.8z"/> <path class="st12" d="M263.1,189.3c1.7-1.1,4.1-3,6-5.9c2.2-3.4,1.9-5.4,4-6.6c2-1.2,3.6-0.1,9.4,0.5c5,0.5,7.6,0.7,10.4-0.2 c4.7-1.6,4.5-4.5,9.2-5.8c3.5-1,6.6-0.2,8.3,0.2c5.5,1.3,5.4,3.7,9.1,4.1c4.5,0.4,6.1-2.9,13.3-5.1c3.5-1,6.5-1.2,8.6-1.3 c5.8,3.2,10.9,5.6,14.8,7.3c6.4,2.8,9.5,3.6,12.2,4.1c3.4,0.7,6.3,0.8,8.4,0.8c-3.6,8.6-7.3,17.1-10.9,25.7l-103.9,2.5L263.1,189.3z "/> <path class="st13" d="M1.4,144.6c0,0,14.8-19.8,44.7-18.4c29.9,1.4,72.4,14.1,84.6,18.4c12.2,4.2,34.1,11.3,43.6,11.3 c22.1,0,42.1,14.3,63.8,18.3c3.4,0.6,7.7,1.2,11.9,4.4c3.4,2.7,4,5,8.1,7.3c2.8,1.5,5.3,1.9,8.5,2.4c2.4,0.4,6.9,1,12.3,0 c7.3-1.4,7.7-4.3,12-4c4.5,0.4,4.6,3.5,11.7,7.3c6.7,3.6,13.3,4.3,15.9,4.5c6.2,0.6,6.5-0.8,10.4,0.1c8.2,1.9,15.7,9.8,14.3,14.3 c-1,3.2-6.2,4.2-10.5,4.9c-20.7,3.4-37.8,1.8-52.5,1c-14.7-0.9-13.9-10.2-39.4-1.4c-8.2,2.8-20.4,0-25.8-1.4 c-5.4-1.4-77.5,47.3-91.1,45.9c-13.6-1.4-122.5,20-122.5,20V144.6z"/> <path class="st14" d="M1.4,236.9c0,0,66.3-4.3,75.8-8.5c9.5-4.2,34.4-8.9,42.6-4.6c8.2,4.2,39.1-3.9,43.7-6.9 c3.6-2.3,13.5-11.4,23-8.5c4.2,1.3,5.8-0.7,32.6-0.1c15.7,0.4,20.1,0.4,28.5,0.9c6.9,0.4,12.3,0.8,16.6,1.1 c12.7,0.9,21.5,1.9,24.3,2.1c20.5,1.9,39.6-0.5,46-0.9c29.8-2.1,44.5,20,100.8,45.6c14.8,6.7,44.1,30.8,111.4,37.8 c13.6,1.4,40.6,12.9,40.6,12.9V405H1.4V236.9z"/> <path class="st13" d="M340.2,208.2c0,0,8.2-18.4,19-21.2c10.9-2.8,31.3-11.3,36.7-11.3c5.4,0,5.4-9.9,15-5.6 c9.5,4.2,9.5,2.8,17.7-1.4c8.2-4.2,12.2-14.7,17.6-16.2c5.4-1.4,10.9-2.2,19.1-6.4c8.2-4.2,19-19.8,25.8-18.4 c6.8,1.4,12.2-4.2,21.8-7.1c9.5-2.8,13.5-4.2,23-4.2c9.5,0,20.5-5.6,27.3-4.2s24.2-4.2,24.2-4.2v203.2c0,0-35,15.5-51.4,5.7 c-16.3-9.9-152.3-86.1-152.3-86.1L340.2,208.2z"/> <linearGradient id="SVGID_3_" gradientUnits="userSpaceOnUse" x1="320.2999" y1="405.0441" x2="320.2999" y2="212.7097"> <stop offset="0.2923" style="stop-color:#4B8896"/> <stop offset="0.4174" style="stop-color:#4A8693"/> <stop offset="0.5159" style="stop-color:#49808D"/> <stop offset="0.6053" style="stop-color:#467783"/> <stop offset="0.6893" style="stop-color:#426B76"/> <stop offset="0.7689" style="stop-color:#3C5C68"/> <stop offset="0.8128" style="stop-color:#38525F"/> </linearGradient> <path class="st15" d="M260.6,217.3c-8.2,2.9-40.9,9.3-51.8,12.1c-10.9,2.9-36,34.6-36,46.1c0,11.5,0.1,34.6,8.3,43.2 c8.2,8.6,13.9,25.6,23.4,27.1c9.5,1.4,19.9,27.1,25.3,34.2c5.4,7.2,38.1,25,38.1,25h199.9c0,0-16.3-0.4-21.8-6.1 c-5.4-5.7-17.5-2.6-28.4-9.8c-10.9-7.2-36.8-16.4-43.6-19.2c-6.8-2.9-38.3-18.8-46.5-27.4c-8.2-8.6-33-22.5-49.4-26.8 c-16.3-4.3-39.1-25.9-37.7-33c2.5-13-3.3-20.9,9.6-36.7c8.2-10,77.4-28.9,82.8-30.3c5.4-1.4-6.5-4.2-23.2-2.3 C296.9,214.9,260.6,217.3,260.6,217.3z"/> <path class="st16" d="M429.5,245c0,0,1.2-16.2,7.3-16.2c6.1,0,8.5,5.1,14.6,3c6.1-2,11-3,14.6-3c3.7,0,13.4,6.1,20.7,5.1 c7.3-1,12.2-11.1,19.5-8.1c7.3,3,6.1,7.1,14.6,6.1c8.5-1,11-4,17-1c6.1,3,21.9-4,21.9-7.1c0-3,12.2-10.1,12.2-10.1 c6.1,2,13.7,10.1,13.7,10.1v62.8l-119.6-3L429.5,245z"/> <path class="st17" d="M396.2,230.4c-2.8-2.9-5.5-13.7-1.4-12.9c4.2,0.7,5.5,1.4,6.9,0c1.4-1.4,4.2-7.2,6.2-3.6 c2.1,3.6,0,10.1,2.8,10.8c2.8,0.7,6.9,4.3,6.9,7.2s-8.3,9.3-8.3,9.3L396.2,230.4z"/> <path class="st17" d="M408.7,172.9c-3.5-0.7-7.6,2.2-4.8,4.3c2.8,2.2,9,1.4,9,5.8c0,4.3,2.8,8.6,5.5,8.6c2.8,0,4.8-0.7,7.6,1.4 c2.8,2.2,2.1,4.3,5.5,3.6c3.5-0.7,4.2-4.3,1.4-6.5c-2.8-2.2-3.5-2.9-3.5-7.9c0-5-2.8-7.2-5.5-7.2c-2.8,0-3.5,2.2-6.9,0.7 C413.5,174.3,408.7,172.9,408.7,172.9z"/> <path class="st17" d="M509.1,197.3c3.5,0,5.5-2.2,8.3-1.4c2.8,0.7,4.8,6.5,7.6,6.5c2.8,0,8.3,1.4,6.2,3.6c-2.1,2.2-5.5,0-7.6,4.3 c-2.1,4.3-2.1,10.1-5.5,9.3c-3.5-0.7-2.8-11.5-5.5-10.8c-2.8,0.7-9,5-9,0.7c0-4.3,2.8-4.3-0.7-6.5 C499.4,200.9,509.1,197.3,509.1,197.3z"/> <path class="st18" d="M316.9,220.1c-6.9,3.7-15.2,8.9-14.3,12.4c0.9,3.4,10,2.3,23.4,4.9c11.8,2.3,12.4,4.7,38.8,15.4 c18.4,7.4,16.6,9.7,32.6,12.5c9.5,1.6,24.4,9.3,32.6,15.3c8.2,6,31.6,13.6,43.8,17.7c12.2,4.1,24.3,3.6,31.1,5.6 c6.8,2,10.2,10.7,23.8,14.6c13.6,3.9,21.8,3.8,29.9,9.8c8.2,6,28.9,6,28.9,6v-57.9c0,0-24.2,5.9-35,0.2 c-10.9-5.7-20.4-11.5-24.5-12.4c-4.1-0.9-10.9-1.4-19-4.6c-8.2-3.2-20.4-3.9-29.9-5.5c-9.5-1.6-31.3-2-39.5-8 c-8.2-6-25.9-14.9-32.7-14.1c-6.8,0.9-29.9-6.3-36.7-13.9c-13.4-15-23.8-9-31.3-8.1C328.9,211.1,321.5,216.2,316.9,220.1z"/> <path class="st16" d="M585.9,144.6c0,0-14.9,7.8-31.7,1.9c-16.8-5.8-21.6-11.6-28.8-3.9c-7.2,7.8-9.6,23.3-19.2,23.3 c-9.6,0-21.6-13.6-26.4-3.9c-4.8,9.7-4.8,23.3-19.2,21.3c-14.4-1.9-21.6,7.8-4.8,11.6c16.8,3.9,24-11.6,38.3-7.8 c14.4,3.9,33.5,13.6,43.1,11.6c9.6-1.9,16.8-13.6,24-13.6c7.2,0,24.5,1.9,24.5,1.9V144.6z"/> <path class="st19" d="M1.4,233.3c7.4,3,10.4,2.7,11.4,1.4c1.4-1.7-0.9-4.8,0.6-6.5c1.2-1.3,3.7-0.7,10.1,1.2 c9.3,2.8,13.2,4.3,13.9,3.2c0.9-1.3-4.3-4.8-3.2-7.4c1-2.4,6.8-2.2,8.3-2.1c5.1,0.2,8.2,1.9,11.1,2.9c3.8,1.3,9.6,2.5,17.8,1 c-0.7-0.7-3.6-3.9-2.6-6c0.3-0.6,1.3-2,8.6-1.7c4.1,0.2,9.8,0.8,16.6,3c-1.2-1.9-2.6-4.4-1.7-5.7c2-2.7,12.9,3.1,14.5,0.8 c1.4-2.1-5.7-7.9-4.5-9.8c1.3-2,9.5,4.7,21.8,4.4c6-0.2,7.3-1.9,13.2-1.1c5.4,0.7,6.2,2.4,12.4,3.7c7.4,1.5,14.5,0.8,14.7-0.3 c0.2-1-5.6-1.4-11-5.7c-4.2-3.3-6.4-7.6-7.7-11c7.6,4.4,15.1,8.9,22.7,13.3c-2-4.8-2-6.6-1.3-7c1.7-1.2,7.6,6.3,11,4.7 c2-1,1.2-4,3.2-4.9c3.1-1.4,7.3,4,9.8,2.6c0.7-0.4,1.4-1.4,1.3-4c8.1,5,12.8,4.9,15.7,3.7c2.3-1,4.2-2.9,7-2.3 c2.6,0.5,2.9,2.6,5.7,3c2.7,0.4,4-1.5,5.9-0.7c1.5,0.6,2.3,2.4,2.8,4.4c-4.8,1.1-9.6,2.3-14.3,3.4c-7.8-0.2-13.5,1.2-17.2,2.7 c-4.4,1.7-6.8,3.6-11.2,3.2c-3.5-0.3-5.2-1.7-8.2-0.8c-2.7,0.8-3,2.5-5.7,3.8c-1.8,0.9-4.5,1.5-8.7,0.7c-0.2,2-0.4,4-0.7,6 c-11.1-3.1-15.1-3.1-15.7-1.9c-0.5,1,1.2,2.5,0.7,3.2c-1.2,1.6-11.4-4.9-12.3-3.7c-0.7,0.9,4.1,4.9,3.3,6c-0.9,1.4-9.2-3.5-10.7-1.7 c-1.4,1.8,5.2,8.3,3.7,10.2c-1.1,1.4-4.5-1.5-9-0.4c-4.5,1.1-3.9,5.4-9,7.2c-4.2,1.4-12.8,0-14.9,2.2c-2.1,2.2-4.2,6.5-9,8.6 c-4.8,2.2-10.4-1.8-13.2,1.8c-2.8,3.6-7.3,6.1-11.4,5.4c-4.2-0.7-12.1-1.1-14.9,0.4c-2.8,1.4-10.4,0.7-15.2-1.4 c-4.8-2.2-8.7-2.5-11.4-2.5c-2.8,0-6.9,0-10.4-2.2c-3.5-2.2-5.1,7-7.2,6.2c-2.1-0.7-5.5-3.1-5.5-3.1V233.3z"/> <path class="st20" d="M31.1,262.6c0,0,1.6-2.9,2.4-2.7c0.9,0.2,2.4-3.1,2.1-3.8c-0.3-0.7,0.9-4.7-0.2-5.2c-1-0.5-3.5-0.7-2.4-1.3 c1-0.5,1.9-1.1,2.9-1.6c1-0.5,1.7-2.7,1.9-1.4c0.2,1.3-1.7,3.1-0.7,3.6c1,0.5,2.6,2,2.1,2.9c-0.5,0.9-1.2,1.4-0.9,2.2 c0.3,0.7,2.1,2,2.1,2.7c0,0.7-1.6,2.2-0.7,2.7c0.9,0.5,1.4,1.3,1,2c-0.3,0.7-1,2.2-0.7,2.7c0.3,0.5,0.3,0.9-0.5,0.9 s-2.1-1.1-3.1-1.6c-1-0.5-1.2-1.1-2.1-1.1C33.5,263.5,31.1,262.6,31.1,262.6z"/> <path class="st20" d="M73,235.3c0,0.7-0.7,4.1-1.2,4.7c-0.5,0.5-0.9,1.3-0.2,1.6c0.7,0.4,2.9,1.1,3.1,2.2c0.2,1.1-1.4,2.7-0.2,3.2 c1.2,0.5,2.1,1.8,2.2,2.7c0.2,0.9-0.7,2.7,0.3,3.2c1,0.5,2.8,1.4,3.1,2.5c0.3,1.1-0.7,3.1,0,3.2c0.7,0.2,0.7-0.4,2.3,0.2 c1.6,0.5,2.9-0.5,2.1-0.9c-0.9-0.4-1.6-2.9-0.7-3.2c0.9-0.4,0.3-4.5-0.5-5.6c-0.9-1.1-0.5-2-1-2.9c-0.5-0.9-1-1.4-1.9-1.8 c-0.9-0.4-1.7-0.9-2.1-2c-0.3-1.1-2.4-2.2-2.9-2.3c-0.5-0.2-0.9-3.4-1-4.3c-0.2-0.9-0.9-1.3-1.9-1.8C71.4,233.5,73,235.3,73,235.3z"/> <path class="st20" d="M144.1,228.4c-1,0-2.9,0.7-2.4-0.5c0.5-1.3,2.1-1.6,1.6-2.9c-0.5-1.3-0.2-2.7,0.5-2.7c0.7,0,1.4,1.4,2.9,1.3 c1.6-0.2,4-0.7,3.6-0.2c-0.3,0.5-0.9,1.1,0.2,1.4c1,0.4,3.8,0.4,2.9,1.1c-0.9,0.7-3.3,0.4-4.3,0.9c-1,0.5-2.1,1.1-3.1,1.6 C145,229,144.1,228.4,144.1,228.4z"/> <path class="st20" d="M204.3,213.7c1.2-0.2,1.9-0.2,1.9-2c0-1.8,0.3-2.3,1.2-1.8c0.9,0.5,1,1.6,1.9,1.6c0.9,0,1.7-1.1,2.8-0.2 c1,0.9,0.9,1.3,1.9,1.3c1,0,3.6-0.7,3.1,0c-0.5,0.7-4,1.3-5,1.1c-1-0.2-3.5,0.5-4,0.7c-0.5,0.2-4.3,0.9-4.8,0.9 C202.8,215.3,204.3,213.7,204.3,213.7z"/> <path class="st21" d="M505.8,291.3c1.7,0,3.1-2.9,4.8-2.2c1.7,0.7,3.1,1.4,4.8,1.4c1.7,0,2.4-1.1,4.5-0.4c2.1,0.7,2.1,5,4.2,5 s4.5-0.4,5.2,2.5c0.7,2.9,1,4.7,3.1,6.1c2.1,1.4,5.5,4.3,3.5,4.7c-2.1,0.4-6.9,1.1-8.3-1.1c-1.4-2.2-3.5-3.2-4.5-3.6 c-1-0.4-3.8,2.2-4.8-0.4c-1-2.5-2.4-6.5-3.5-6.8c-1-0.4-3.1,0.7-5.9-0.4c-2.8-1.1-3.8-2.9-6.2-3.2c-2.4-0.4-4.2-1.4-2.8-2.2 C501.3,290.2,505.8,291.3,505.8,291.3z"/> <path class="st21" d="M480.2,260.4c1.7-0.7,5.5-2.2,6.9-1.1c1.4,1.1,2.1,2.9,3.8,3.2c1.7,0.4,4.5,2.2,6.2,4.7 c1.7,2.5,3.5,2.9,5.2,3.6c1.7,0.7,3.5,3.6,1.4,3.6c-2.1,0-3.1-1.8-5.2-1.8c-2.1,0-4.5-1.1-5.5-2.5c-1-1.4-1-4-3.1-4 c-2.1,0-4.5,1.4-5.2-1.1c-0.7-2.5-1.7-2.9-3.1-2.5c-1.4,0.4-3.8,1.4-4.5-0.4C476.4,260.4,480.2,260.4,480.2,260.4z"/> <path class="st21" d="M404.7,247.5c-2.1-0.7-4.5,5.4-6.6,4.3c-2.1-1.1-4.2,3.6-5.5,3.6c-1.4,0-3.8-0.4-5.5,0.4 c-1.7,0.7,0.7,2.9-1,2.9c-1.7,0-5.2,2.5-3.1,3.2c2.1,0.7,4.8,1.4,6.9,1.1c2.1-0.4,3.5-4,5.9-3.2c2.4,0.7,8.3-1.1,8.3-2.5 c0-1.4-1-4,1-4c2.1,0,1.7-3.2,3.5-3.2c1.7,0,4.8-1.4,2.4-2.2C408.5,247.1,404.7,247.5,404.7,247.5z"/> <g> <path class="st21" d="M334.5,211.5c-1,0-4.2,2.5-2.4,2.5c1.7,0,4.2-1.4,4.5,0.7c0.3,2.2-1,4,1.4,4.3c2.4,0.4,4.2,0,6.2,1.4 c2.1,1.4,2.8,5.4,5.2,6.1c2.4,0.7,4.2-0.4,6.2,1.1c2.1,1.4,3.8,4.7,5.5,5c1.7,0.4,4.5,0.7,5.2,2.9c0.7,2.2,2.4,4.7,3.8,4.7 c1.4,0,0-3.6-1.4-5.4c-1.4-1.8-4.2-2.5-5.2-4c-1-1.4-3.8-5.4-6.6-6.8c-2.8-1.4-5.9-0.7-6.2-2.9s-2.4-3.6-4.2-4 c-1.7-0.4-3.8,0-5.2-1.8c-1.4-1.8-1-2.9-2.8-3.6C337,211.1,334.5,211.5,334.5,211.5z"/> </g> <path class="st22" d="M22.3,160.6c2.8,0,9.3,0,9.3,4.5c0,4.5,0.9,7.7,6.5,9c5.6,1.3,3.7,6.4,1.9,8.4c-1.9,1.9-1.9,7.7,0.9,9 c2.8,1.3,9.3,1.9,13.1,4.5c3.7,2.6,1.9,8.4,7.5,10.3c5.6,1.9,10.3,6.4,7.5,6.4c-2.8,0-11.2-4.5-14-7.1c-2.8-2.6-3.7-5.1-9.3-6.4 c-5.6-1.3-12.1-6.4-12.1-10.3c0-3.9,3.7-9,0-10.3c-3.7-1.3-8.4-3.2-8.4-6.4c0-3.2,0.9-5.1-2.8-6.4c-3.7-1.3-9.3-7.7-5.6-7.7 C20.4,158,22.3,160.6,22.3,160.6z"/> <path class="st22" d="M188.7,168.7c2.2-0.2,6-3.3,8.2,1.8c2.2,5.1,3.9,5.1,6.2,6.5c2.3,1.3,7.6,5.8,9,9c1.4,3.2,4.5,6.4,6.9,6.9 c2.5,0.5,5.5,2.2,4.6,4.1c-0.9,1.9-5.9-0.5-8-2.6c-2.1-2.1-5.2-6.9-7.2-7.5c-2-0.7-3.9,0.2-7.4-5.2c-3.4-5.4-4-8.1-7-8.4 c-3-0.2-6-2-8.8-3.1C182.5,169,188.7,168.7,188.7,168.7z"/> <path class="st22" d="M94.1,151.2c2.4,0.5,6.5,1.6,6.5,4.2c0,2.6,1.6,4.7,4.9,5.8c3.2,1,8.1,2.6,9.7,5.8c1.6,3.1,1.6,5.8,5.7,7.9 c4.1,2.1,10.6,4.2,6.5,4.7c-4.1,0.5-9.7-1.6-11.4-3.7c-1.6-2.1-1.6-6.3-6.5-7.3c-4.9-1-9.7,0.5-9.7-2.6c0-3.1,0.8-5.8-2.4-6.8 c-3.2-1-8.1-4.7-9.7-6.3c-1.6-1.6-4.9-4.7-0.8-4.7S94.1,151.2,94.1,151.2z"/> <path class="st22" d="M76,169.1c8.3-0.8,18-1.6,18,3.2s0,10.4,4.2,12c4.2,1.6,15.3,4.8,16.7,8c1.4,3.2,1.4,8,6.9,9.6 c5.6,1.6,20.8,4.8,13.9,5.6c-6.9,0.8-15.3,0-22.2-3.2c-6.9-3.2-6.9-13.6-15.3-13.6c-8.3,0-13.9-8.8-15.3-11.2 c-1.4-2.4-9.7-8-16.7-9.6C59.3,168.3,76,169.1,76,169.1z"/> <path class="st12" d="M226.6,204.9c4.9-0.9,7.1-0.9,8.9-3.2c1.8-2.3,2.2-3.2,3.6-1.8c1.3,1.4,3.1,3.2,4.9,3.2c1.8,0,2.2-1.4,5.3-0.9 s6.2,4.6,9.3,3.7c3.1-0.9,10.7,1.8,9.3,3.2c-1.3,1.4-10.7,0-12.9-0.5c-2.2-0.5-7.6,0.9-10.2-0.9c-2.7-1.8-7.1-2.8-9.3-1.4 c-2.2,1.4-6.5-0.6-8.8-0.3C224.3,206.3,226.6,204.9,226.6,204.9z"/> <linearGradient id="SVGID_4_" gradientUnits="userSpaceOnUse" x1="221.7426" y1="376.4144" x2="454.4437" y2="376.4144"> <stop offset="0.4821" style="stop-color:#4B8896"/> <stop offset="0.6047" style="stop-color:#4A8693"/> <stop offset="0.7012" style="stop-color:#49808D"/> <stop offset="0.7888" style="stop-color:#467783"/> <stop offset="0.8712" style="stop-color:#426B76"/> <stop offset="0.9492" style="stop-color:#3C5C68"/> <stop offset="0.9923" style="stop-color:#38525F"/> </linearGradient> <path class="st23" d="M268.1,405c0,0-23.4-12-26-15.7c-2.7-3.7-13.3-12.9-13.3-17.5s-0.9-12-3.6-14.8c-2.7-2.8-5.3-10.1-1.8-9.2 c3.6,0.9,4.4,11.1,9.8,12c5.3,0.9,3.6-7.4,7.1-6.5c3.6,0.9,8.9,4.6,13.3,5.5c4.4,0.9,7.1-8.3,12.4-3.7c5.3,4.6,11.5,5.5,19.5,6.5 c8,0.9,4.4-8.3,8-6.5c3.6,1.8,4.4,2.8,11.5,5.5s12.4,8.3,16,8.3c3.6,0-1.8-6.5-3.6-12c-1.8-5.5-0.9-3.7,1.8-2.8 c2.7,0.9,8.9,11.1,15.1,13.8c6.2,2.8,9.8-4.6,16,0.9c6.2,5.5,17.8,10.1,24,10.1c6.2,0,8.9-2.8,16.9,1.8c8,4.6,10.7,12,15.1,10.1 c4.4-1.8,20.4,2.8,27.5,8.3c7.1,5.5,20.4,5.5,20.4,5.5H268.1z"/> <linearGradient id="SVGID_5_" gradientUnits="userSpaceOnUse" x1="198.8592" y1="329.2415" x2="295.4196" y2="329.2415"> <stop offset="2.564103e-02" style="stop-color:#56869B"/> <stop offset="0.4581" style="stop-color:#52869B"/> <stop offset="0.7981" style="stop-color:#468498"/> <stop offset="1" style="stop-color:#398195"/> </linearGradient> <path class="st24" d="M206.9,265.8c-2.9,3.9-7.2,10.7-7.9,19.7c-1.3,15.9,9.3,28.7,20.4,41.8c8.9,10.5,8.5,7.1,22.3,21.7 c17.9,18.9,19.6,25.3,32.7,33.8c7.4,4.8,26.8,13.3,19.3,8.4c-7.4-4.8-20.8-15.7-28.3-25.3c-7.4-9.7-25.3-24.1-29.8-31.4 c-6.7-10.9-14.2-13.7-20.8-22.9c-9.4-13-10.8-19.8-11.3-22.9C202,278.7,204.9,270.3,206.9,265.8z"/> <linearGradient id="SVGID_6_" gradientUnits="userSpaceOnUse" x1="295.4196" y1="253.2546" x2="295.4196" y2="397.371"> <stop offset="2.564103e-02" style="stop-color:#56869B"/> <stop offset="0.4581" style="stop-color:#52869B"/> <stop offset="0.7981" style="stop-color:#468498"/> <stop offset="1" style="stop-color:#398195"/> </linearGradient> <path class="st25" d="M219.4,271c-2,8.6,1.9,15.8,7.7,26.4c4,7.2,10.5,18.8,24.1,30.6c8.1,7.1,17.8,12.6,37.2,23.5 c6.8,3.8,12.7,6.9,20.4,12.9c8.3,6.4,11.7,10.6,15.9,14.4c18.8,17.2,46.5,20.1,47.4,17.8c0.7-1.7-14-6-37.5-22.4 c-18-12.6-19.4-17.1-35.5-26.3c-13.5-7.7-15.1-6-28.4-14c-9.6-5.8-20.3-12.3-30.1-24.2c-7.7-9.3-17.3-21-15.8-36.2 c1-9.6,6-16.7,9.2-20.4C230.3,255.3,221.7,261.1,219.4,271z"/> <path class="st26" d="M221.7,225.5c-2.8-0.5-15.1,2.9-17,3.4c-1.9,0.5-4.3,4.8-6.6,4.8c-2.4,0-7.1,4.3-9,6.7 c-1.9,2.4-2.8,8.6-5.7,9.1c-2.8,0.5-6.6,4.8-6.6,6.2s-2.4,7.2-4.7,8.6c-2.4,1.4-2.8,8.6-2.4,14.9c0.5,6.2,1.9,9.6,1.4,11.5 c-0.5,1.9-1.4,7.4-0.5,11c0.9,3.5,4.7,4.8,5.7,7.7c0.9,2.9,1.4-10.6-0.9-12c-2.4-1.4-0.9-3.8-0.9-7.2c0-3.4,0-9.6,0-12.5 c0-2.9,0.5-8.6,2.4-11c1.9-2.4,5.2-4.8,5.2-6.7c0-1.9,3.8-3.8,6.1-6.7c2.4-2.9,1.9-3.8,3.8-7.2c1.9-3.4,3.3-6.2,6.1-6.7 c2.8-0.5,4.7-5.3,7.6-6.2C208.5,232.3,221.7,225.5,221.7,225.5z"/> <path class="st17" d="M1.4,255.7c1.4-0.5,6.8-1,8.7-1c1.9,0,2.9,2.5,6.2,2c3.3-0.5,5.2-0.5,7.2-0.5c1.9,0,4.8-0.5,7.6,0 c2.9,0.5,4.8,3.5,5.7,0.5c1-3,3.8-1.1,6.4-0.5c2.6,0.5,5.5,2.1,7.9,1.1c2.4-1,2.4-2.5,5.2-3.5c2.9-1,5.2-1,5.2-3.5 c0-2.5,0-5.1,2.9-5.1c2.9,0,2.9,1.5,5.2,2.5c2.4,1,5.7,1.5,6.7-1c1-2.5,5.4-7,7.5-7.4c2.2-0.4,4.4,0.8,6.3-2.7c1.9-3.5,7.2-1,10-0.5 c2.9,0.5,4.3,1.5,6.7,1.5c2.4,0,6.7,1.5,9.1-1c2.4-2.5,8.1-5.6,10-4.1c1.9,1.5,7.2,0.5,9.1,2c1.9,1.5-4.3,7.1-4.3,7.1l-57.7,24.3 L25.4,275l-24-4.6V255.7z"/> <path class="st27" d="M1.4,259.3v73.8c0,0,3.7-0.5,5.9-0.5s5.3,1.4,7.6,2.8c2.2,1.4,5.3,4.6,7.1,5.1c1.8,0.5,4.2,1.4,5.8,0.9 c3.1-0.9,4-2.3,4-4.6c0-2.3,2.7-1.8,4.9-4.2c2.2-2.3,1.3-5.1,3.6-4.6c2.2,0.5,4.5,8.6,7.1,10.4c0.1,0.1,0.4,0.1,0.8,0.3 c1.7,0.7,2.4,2.2,2.8,2.7c0.7,1,2.1,1.7,9.9,2c4.6,0.1,6.8,0.2,8.6,0c1.6-0.2,7.1-1.1,18.4-9.2c8.6-6.2,7.1-6.9,11.8-9.2 c2.1-1,9.4-4.4,18.4-3.3c5.5,0.7,5.6,2.3,9.2,2c8.4-0.8,13.7-10.3,14.5-11.8c2.6-4.8,0.9-5.2,3.9-12.6c3.4-8.5,6.8-10.7,5.9-14.5 c-0.5-2.1-2.4-4.9-8.6-7.2c10.8-5.6,12.9-8.7,12.5-10.5c-0.6-2.5-6.2-2.4-7.2-5.9c-0.2-0.7-0.5-2.4,3.3-7.9c4.8-7.1,7.7-8.1,7.2-9.9 c-0.9-3.2-12.4-4.2-21.1-2.6c-2.2,0.4-5.4,1.1-10,1c-3.2-0.1-4.3-0.5-7.6-0.9c-6.2-0.8-14.3-1.9-21.8,1.4c-2.9,1.3-3.8,2.3-6.7,2.8 c-4.5,0.7-6.5-1.2-9.3-0.9c-2.8,0.3-6.5,2.8-10.2,12.9c-1.5-0.4-3.6-0.9-6.2-0.9c-2.8,0-6.1,0.2-9.3,1.8c-1.8,0.9-4.9,5.1-6.7,5.1 c-1.8,0-2.3-1.4-5.8-0.9c-3.4,0.5-10.2,2.8-13.3,1.4c-3.1-1.4-4.9-1.4-7.1-1.8c-2.2-0.5-4.5,3.4-6.7,2.3c-1.8-0.9-5.3-3.2-8-3.7 C6.5,259.8,1.4,259.3,1.4,259.3z"/> <path class="st28" d="M1.4,309.1c0,0,5.7,0.2,6.6,1.8c0.9,1.6,0.7,1.8,1.6,2.8c0.9,0.9,2,1.4,1.8,2.8c-0.2,1.4-1.6,4.1-0.9,4.6 c0.7,0.5,2.7,0.9,4,0.5c1.3-0.5,2.4-0.5,2.7,0.5c0.2,0.9-0.7,1.6,0.4,2.3c1.1,0.7,2.2,1.8,1.6,2.3c-0.7,0.5-1.6,0-2.9-0.5 c-1.3-0.5-2.4-0.7-3.3,0c-0.9,0.7-1.8,1.8-0.7,2.3c1.1,0.5,2.9,1.8,3.1,2.8c0.2,0.9,0.2,3.2,1.3,3.9c1.1,0.7,1.8-0.7,2.9,0 c1.1,0.7,0.7,2.5,2.2,3c1.6,0.5,3.1,1.2,2.2,1.8c-0.9,0.7-2,0.5-3.6,0.2c-1.6-0.2-3.6-3.2-4.4-3.2c-0.9,0-3.8,0.5-5.1,0 c-1.3-0.5-0.7-2.8-1.8-3.2c-1.1-0.5-2.2-1.8-2.2-3.2c0-1.4,2.7-3.7,1.1-4.4c-1.6-0.7-2-0.9-2-3.2c0-2.3,0-4.1-0.9-4.6 c-0.9-0.5-3.7-2.5-3.7-2.5V309.1z"/> <path class="st17" d="M51.5,321.8c0-0.7-0.7-2.1,0.9-2.8c1.6-0.7,1.6-0.5,2-1.8c0.4-1.4,0.4-1.6,1.3-1.6c0.9,0,1.3,2.8,2.7,2.8 c1.3,0,4.7-1.4,4.9-0.5c0.2,0.9-1.1,3.7,0.2,4.1c1.3,0.5,3.6,0.2,3.6,1.4c0,1.2,0,4.1-0.7,4.6c-0.7,0.5-2.2,1.6-1.8,2.8 c0.4,1.2,1.6,2.1,2.9,2.1c1.3,0,3.6-1.2,4.7-0.9c1.1,0.2,0.4,0.5-0.7,1.2c-1.1,0.7-2.4,0.7-3.3,1.8c-0.9,1.2-4.4,3.7-5.8,2.8 c-1.3-0.9-1.8-1.4-2.9-1.2c-1.1,0.2-2.7,2.1-4.2,1.4c-1.6-0.7-1.6-0.9-3.1-0.7c-1.6,0.2-3.6,1.6-4.9,1.2c-1.3-0.5-1.3-2.8,0.2-3.2 c1.6-0.5,4-2.1,3.1-2.8c-0.9-0.7-1.8-0.5-1.3-1.8c0.4-1.4,1.8-1.2,1.3-2.3c-0.4-1.2-1.3-1.8-0.7-3c0.7-1.2,2.9-0.7,2.9-2.1 C52.9,321.8,51.5,321.8,51.5,321.8z"/> <path class="st17" d="M1.4,291.8c0,0,6.8,2.3,8.4,1.8c1.6-0.5,2.2-1.6,3.8-1.2c1.6,0.5,3.1,1.2,4.2,1.2c1.1,0,0.9-1.8,1.8-1.8 c0.9,0,6.2,1.8,7.6,1.6c1.3-0.2,2.4-0.9,4.2-0.2c1.8,0.7,3.1,3.2,4.7,3.2s3.1-0.2,4.4-0.2c1.3,0,5.8-1.4,5.1-2.8 c-0.7-1.4-3.1-3.2-1.3-3.7c1.8-0.5,4.7-0.9,6.4-0.5c1.8,0.5,1.8,1.2,4,1.6c2.2,0.5,3.6-0.7,4.4-0.2c0.9,0.5,2.7,0.7,4,0.7 c1.3,0,2-0.7,0.9-1.2c-1.1-0.5-3.3-0.2-4.2-1.8c-0.9-1.6-2-2.3-3.3-2.3c-1.3,0-3.6,0.2-4.9-0.2c-1.3-0.5-2.7-0.7-4-0.7 c-1.3,0-3.8,2.3-5.6,1.8c-1.8-0.5-2.2,1.8-3.8,1.8c-1.6,0-3.3,2.3-4.9,0.9c-1.6-1.4-2.4-1.6-3.6-1.4c-1.1,0.2-4,1.2-4.7,0.9 c-0.7-0.2-3.8-3-5.1-2.8c-1.3,0.2-2.4,1.8-3.6,1.2c-1.1-0.7-2.7-1.4-4-0.9c-1.3,0.5-2,2.3-3.3,1.8c-1.3-0.5-2.4-0.9-3.8-0.9 c-1.3,0-3.9,0.7-3.9,0.7V291.8z"/> <path class="st17" d="M66,280.3c0.5,0.8,1.4,2,2.9,3c0.9,0.6,3.2,2.2,5.7,1.7c3.3-0.6,4.2-4.3,5.6-3.8c1.3,0.4,0.2,3.6,2.2,6.6 c2,3.1,6,4,7.4,4.3c4.8,1.1,6.4-0.8,8.7,0.8c2.2,1.6,3.6,6.3,6.1,6.3c2.5,0,5.1-6.3,7.6-6.3c3.8,0,7.4,2.1,8.7,3.1 c6.3,5.3,4.8,10.9,9.2,12.5c3.9,1.4,8.1-2.1,8.7-1.1c0.4,0.6-0.9,2.6-7.4,8.2c-7.2,2-9.9,1.1-10.9-0.2c-2-2.6,2.1-6.8,0.1-11.6 c-1.5-3.5-6.8-7.9-9-5.5c-1.4,1.6-5.8,6.3-7.2,6.3c-1.4,0-5.8-5.5-7.6-5.5c-1.8,0-5.4,2.4-7.9,0.8c-2.5-1.6-5.4-6.3-6.9-6.3 c-1.4,0-2.5,3.1-5.4,3.1c-2.9,0-4.7-3.1-8.3-2.3c-3.6,0.8-5.4-3.9-5.4-3.9c-5.1-6.2-5.9-8.4-5.3-9.1c0.6-0.7,2.2,0.2,5.7-0.3 C64.3,280.9,65.3,280.6,66,280.3z"/> <path class="st17" d="M127.3,284c1.9-0.5,4.3,5.8,6.2,5.4c2.1-0.5,1.2-8.9,3.3-9.3c1.2-0.2,1.7,2.4,4.3,3.3c3.4,1.1,6.6-1.8,7.3-1 c0.4,0.4-0.1,1.7-3,5.3c2.8,0,3.5,0.6,3.7,1c0.5,1.6-5.5,3.3-5.7,7c-0.1,2.5,2.4,4.6,1.5,5.6c-0.4,0.5-1.4,0.4-2.5,1.5 c-0.2,0.2-0.2,0.2-0.3,0.3c-1.1,1-3.3,1.3-4.4,0.5c-1.3-1-0.9-3.2-1.3-3.2c-0.8-0.1-1.1,7.9-4,8.7c-2.6,0.7-7.2-4.7-6.3-6.4 c0.5-0.8,2.3-0.7,3.8-0.5c-1-1.6-2.1-3.2-3.1-4.8c-0.4-2.9-0.7-5.8-1.1-8.8C125.9,286.7,126.2,284.3,127.3,284z"/> <path class="st29" d="M175.5,307.5c0.4,2.1,2.2,3.7,3.6,6c1.3,2.3,4.9,7.4,7.1,7.8c2.2,0.5,4.9,1.8,5.3,4.1c0.4,2.3,0.4,7.8,2.7,9.2 c2.2,1.4,3.1,0.5,6.2,4.1c3.1,3.7,5.8,6.5,8,7.4c2.2,0.9,11.1,12,13.3,14.3c2.2,2.3,2.7,9,4.9,10.1c2.2,1.2,10.2,6.5,11.1,8.3 c0.9,1.8,1.3,5.5,4,6.5c2.7,0.9,4.4,1.4,5.8,3.7c1.3,2.3,12.9,6.5,14.7,6c1.8-0.5,4,1.8,5.8,3.7c1.8,1.8,3.6,6.2,3.6,6.2h-10.2 c0,0-4.4-4.8-7.1-5.8c-2.7-0.9-4.4,0-6.2-2.3c-1.8-2.3-3.6-4.1-5.8-4.6c-2.2-0.5-6.2-1.8-8-3.7c-1.8-1.8-2.7-5.5-4.9-6.9 c-2.2-1.4-6.2-3.2-8-6.5c-1.8-3.2-4-8.3-6.2-9.7c-2.2-1.4-7.1-5.1-7.1-7.8c0-2.8-0.4-3.2-3.6-4.6c-3.1-1.4-8.9-12.5-12.4-13.4 c-3.6-0.9-7.6-5.5-7.6-8.3c0-2.8-2.7-6.5-4-7.4c-1.3-0.9-4.4-7.4-5.3-10.1c-0.9-2.8-2.2-9.2-2.2-10.6 C172.8,302,175.5,307.5,175.5,307.5z"/> <path class="st26" d="M244.8,258.6c-1.8,2.3-5.3,10.6-5.8,13.8c-0.4,3.2,0,6-0.4,7.4c-0.4,1.4-1.3,6.9,0,8.8 c1.3,1.8,2.7,6.5,5.3,7.8c2.7,1.4,6.7,7.4,8.9,8.8c2.2,1.4,9.8,7.8,12.9,8.8c3.1,0.9,8.4,3.2,9.8,5.1c1.3,1.8,5.8,4.6,8.9,5.1 c3.1,0.5,6.7,1.8,8.4,2.8c1.8,0.9,7.6,2.8,9.8,3.7c2.2,0.9,11.1,4.6,13.3,7.4c2.2,2.8,8.4,6,8.9,7.8c0.4,1.8,2.7,4.6,4.4,4.6 c1.8,0,5.3,0,5.8,2.3c0.4,2.3,1.3,4.2,3.6,4.6c2.2,0.5,4.9,0,5.3,1.8c0.4,1.8,2.7,5.1,5.3,5.1c2.7,0,5.3,0.5,6.7,1.4 c1.3,0.9,2.7,1.8,5.8,3.2c3.1,1.4,9.8,2.3,10.2,4.1c0.4,1.8-0.4,5.1,2.7,6.2c3.1,1.2,7.6-2.5,10.2-1.2c2.7,1.4,4,5.1,7.1,6.5 c3.1,1.4,5.3,0.9,10.2,3.2c4.9,2.3,14.7,0.9,14.7,3.7c0,2.8,4.4,6.9,6.7,7.4c2.2,0.5,7.1-0.9,10.7,0.7c3.6,1.6,11.1,5.5,11.1,5.5 h26.7c0,0-12-7.6-14.7-7.1c-2.7,0.5-8-1.8-9.3-2.3c-1.3-0.5-7.1-4.1-9.8-3.7c-2.7,0.5-6.2-1.4-8.9-1.8c-2.7-0.5-8.4-5.5-10.7-5.1 c-2.2,0.5-7.6-1.8-11.1-4.6c-3.6-2.8-5.8-4.6-8-4.6c-2.2,0-4.4,0.9-6.7-0.5c-2.2-1.4-10.7-5.1-13.8-5.1c-3.1,0-4,0.5-5.8-0.9 c-1.8-1.4-4.4-4.1-7.6-5.1c-3.1-0.9-9.8-3.2-11.1-6c-1.3-2.8-5.8-6-8.4-6.9c-2.7-0.9-6.2-0.9-8-3.7c-1.8-2.8-4.4-6.5-7.1-7.4 c-2.7-0.9-5.3-1.8-7.6-3.7c-2.2-1.8-6.2-5.5-9.3-6.9c-3.1-1.4-7.6-2.3-11.1-5.1c-3.6-2.8-6.2-2.8-8.4-4.6c-2.2-1.8-4.9-4.2-7.6-4.2 c-2.7,0-9.3-0.9-11.1-2.8c-1.8-1.8-6.7-4.2-8.9-4.2c-2.2,0-5.8,0-6.2-3.2c-0.4-3.2-2.7-4.6-5.3-6c-2.7-1.4-4.4-3.2-4.9-6 c-0.4-2.8-4-2.8-5.8-7.4c-1.8-4.6-3.1-6.5-1.8-9.2c1.3-2.8,1.8-5.1,0.9-6.9C243,268.3,244.8,258.6,244.8,258.6z"/> <path class="st12" d="M114,267.4c0,1.2-2.2,1.6-2.9,2.1c-0.7,0.5-4,0.9-3.3,1.2c0.7,0.2-0.7,3.7-0.7,4.8c0,1.2,3.8,1.4,4.2,2.3 c0.4,0.9,0.7-0.2,2.2,0.5c1.6,0.7,2.2,0.7,2.7,1.8c0.4,1.2-0.4,4.8,0.2,5.3c0.7,0.5,2.2,3.2,3.8,2.8c1.6-0.5,1.8-0.5,2.7,0.9 c0.9,1.4,1.6,2.1,2.2,2.8c0.7,0.7,0.2,2.8-0.4,3.2c-0.7,0.5-2.2,2.3-2.4,3.5c-0.2,1.2-0.4,3-1.3,3.7c-0.9,0.7-0.7,2.1-2,3 c-1.3,0.9-2.2,3.7-1.1,3.2c1.1-0.5,1.3-1.2,2.7-1.2c1.3,0,2.7,0.5,3.8,0c1.1-0.5,2.7-2.8,3.6-2.8c0.9,0,3.6-0.9,4.4-0.9 c0.9,0,1.6-1.2,0.9-1.2c-0.7,0-2.2,0.2-3.1-0.2c-0.9-0.5-2.4-0.5-2-1.6c0.4-1.2,1.3-3.2,2.2-3.5c0.9-0.2,2.7-1.6,1.8-2.5 c-0.9-0.9-1.3-1.4-1.3-2.5c0-1.2-1.1-2.1-2-2.3c-0.9-0.2-2.9,0.2-2.9-1.2c0-1.4,0.7-1.8,1.8-2.3c1.1-0.5,1.8-1.2,1.6-2.1 c-0.2-0.9,0.9-2.3-0.2-3c-1.1-0.7-3.1-1.2-4.2-0.9c-1.1,0.2-2.9-0.7-4.2-1.4c-1.3-0.7-1.8,0.2-2-1.8c-0.2-2.1-1.8-3.9-0.7-4.6 c1.1-0.7,3.1-0.9,2.7-1.8c-0.4-0.9,4.7-2.1,3.1-3c-1.6-0.9-2.4-1.2-3.8-1.2c-1.3,0-2.7-0.9-3.8-1.2C114.8,265.1,114,267.4,114,267.4 z"/> <path class="st12" d="M77.8,278.5c-1.3,0.2-2.7,1.2-2,1.6c0.7,0.5,1.3,1.4,0.9,2.3c-0.4,0.9,0,3.5-0.9,4.2c-0.9,0.7-1.6,2.1-0.9,2.3 c0.7,0.2,1.6,0,2.9,0c1.3,0,0.4,1.8,1.6,2.3c1.1,0.5,1.6,1.4,1.6,2.3c0,0.9-0.7,2.5-1.6,3c-0.9,0.5-0.9,2.8-0.9,2.8s1.8,1.4,2.9,1.6 c1.1,0.2,2.4,0.7,2.4,1.8c0,1.2-0.7,3-0.2,3.7c0.4,0.7,0.4,1.8-0.2,3.2c-0.7,1.4-1.8,1.8-1.1,3.2c0.7,1.4,1.6,3.2,2.9,3.5 c1.3,0.2,2.2,0,3.8,0.7c1.6,0.7,3.6,1.8,4.7,1.6c1.1-0.2,1.6-0.7,0.9-1.2c-0.7-0.5-2-2.8-3.1-2.8c-1.1,0-0.9-1.4-1.1-2.5 c-0.2-1.2,0-2.8,0.7-3.2c0.7-0.5,1.6-2.3,0.7-3c-0.9-0.7,0.2-2.3-1.1-3.5c-1.3-1.2-1.8-1.4-2.9-1.8c-1.1-0.5-2.4-1.2-1.1-2.3 c1.3-1.2,2.2-4.4,1.1-4.8c-1.1-0.5-1.1-1.8-1.3-3c-0.2-1.2-0.4-3.7-1.6-4.2c-1.1-0.5-1.8,0-1.8-1.2c0-1.2,2-1.6,1.1-2.5 c-0.9-0.9-1.3-1.2-0.9-2.3c0.4-1.2,0.9-2.1,0-2.3c-0.9-0.2-2.4-0.9-3.3-0.7C78.9,277.5,77.8,278.5,77.8,278.5z"/> </svg>